HIERARCHY
ROOT hip
{
  OFFSET 0 90.174 2.4664
  CHANNELS 6 Xposition Yposition Zposition Zrotation Xrotation Yrotation
  JOINT abdomen
  {
    OFFSET 0 -1.186 -1.5018
    CHANNELS 6 Xposition Yposition Zposition Zrotation Xrotation Yrotation
    JOINT abdomen2
    {
      OFFSET 0 9.964 0.2134
      CHANNELS 6 Xposition Yposition Zposition Zrotation Xrotation Yrotation
      JOINT chest
      {
        OFFSET 0 13.134 -3.2573
        CHANNELS 6 Xposition Yposition Zposition Zrotation Xrotation Yrotation
        JOINT neck
        {
          OFFSET 0 20.686 -1.6905
          CHANNELS 6 Xposition Yposition Zposition Zrotation Xrotation Yrotation
          JOINT head
          {
            OFFSET 0 7.238 -0.1237
            CHANNELS 6 Xposition Yposition Zposition Zrotation Xrotation Yrotation
            End Site
            {
              OFFSET 0 0 0
            }
          }
        }
        JOINT lCollar
        {
          OFFSET 1.7069 20.075 5.0056
          CHANNELS 6 Xposition Yposition Zposition Zrotation Xrotation Yrotation
          JOINT lShldr
          {
            OFFSET 13.6458 -0.047 -4.849
            CHANNELS 6 Xposition Yposition Zposition Zrotation Xrotation Yrotation
            JOINT lForeArm
            {
              OFFSET 28.3255 -0.9759 2.2888
              CHANNELS 6 Xposition Yposition Zposition Zrotation Xrotation Yrotation
              JOINT lHand
              {
                OFFSET 22.1583 -0.53 10.8316
                CHANNELS 6 Xposition Yposition Zposition Zrotation Xrotation Yrotation
                JOINT lThumb1
                {
                  OFFSET 0.786 0.112 2.5817
                  CHANNELS 6 Xposition Yposition Zposition Zrotation Xrotation Yrotation
                  JOINT lThumb2
                  {
                    OFFSET 0.3601 -0.878 4.2331
                    CHANNELS 6 Xposition Yposition Zposition Zrotation Xrotation Yrotation
                    JOINT lThumb2_End
                    {
                      OFFSET 1.8127 -1.216 2.2227
                      CHANNELS 6 Xposition Yposition Zposition Zrotation Xrotation Yrotation
                      End Site
                      {
                        OFFSET 0.0181 -0.0122 0.0222
                      }
                    }
                  }
                }
                JOINT lCarpal1
                {
                  OFFSET 0.9571 1.114 1.7695
                  CHANNELS 6 Xposition Yposition Zposition Zrotation Xrotation Yrotation
                  JOINT lIndex1
                  {
                    OFFSET 4.1246 0.487 4.1451
                    CHANNELS 6 Xposition Yposition Zposition Zrotation Xrotation Yrotation
                    JOINT lIndex2
                    {
                      OFFSET 3.4052 -1.454 2.7682
                      CHANNELS 6 Xposition Yposition Zposition Zrotation Xrotation Yrotation
                      JOINT lIndex2_End
                      {
                        OFFSET 1.4531 -1.795 1.2713
                        CHANNELS 6 Xposition Yposition Zposition Zrotation Xrotation Yrotation
                        End Site
                        {
                          OFFSET 0.0145 -0.0179 0.0127
                        }
                      }
                    }
                  }
                  JOINT lMid1
                  {
                    OFFSET 5.6954 0.21 2.1184
                    CHANNELS 6 Xposition Yposition Zposition Zrotation Xrotation Yrotation
                    JOINT lMid2
                    {
                      OFFSET 3.9766 -1.54 2.3863
                      CHANNELS 6 Xposition Yposition Zposition Zrotation Xrotation Yrotation
                      JOINT lMid2_End
                      {
                        OFFSET 1.4042 -1.926 1.125
                        CHANNELS 6 Xposition Yposition Zposition Zrotation Xrotation Yrotation
                        End Site
                        {
                          OFFSET 0.014 -0.0193 0.0113
                        }
                      }
                    }
                  }
                }
                JOINT lCarpal2
                {
                  OFFSET 2.0956 0.66 -0.3894
                  CHANNELS 6 Xposition Yposition Zposition Zrotation Xrotation Yrotation
                  JOINT lRing1
                  {
                    OFFSET 5.0395 -0.09 2.4971
                    CHANNELS 6 Xposition Yposition Zposition Zrotation Xrotation Yrotation
                    JOINT lRing2
                    {
                      OFFSET 3.7921 -1.552 1.4806
                      CHANNELS 6 Xposition Yposition Zposition Zrotation Xrotation Yrotation
                      JOINT lRing2_End
                      {
                        OFFSET 1.4655 -1.808 0.9609
                        CHANNELS 6 Xposition Yposition Zposition Zrotation Xrotation Yrotation
                        End Site
                        {
                          OFFSET 0.0147 -0.0181 0.0096
                        }
                      }
                    }
                  }
                  JOINT lPinky1
                  {
                    OFFSET 4.9141 -1.269 0.3591
                    CHANNELS 6 Xposition Yposition Zposition Zrotation Xrotation Yrotation
                    JOINT lPinky2
                    {
                      OFFSET 3.1477 -1.685 0.8462
                      CHANNELS 6 Xposition Yposition Zposition Zrotation Xrotation Yrotation
                      JOINT lPinky2_End
                      {
                        OFFSET 0.8055 -1.585 0.7955
                        CHANNELS 6 Xposition Yposition Zposition Zrotation Xrotation Yrotation
                        End Site
                        {
                          OFFSET 0.0081 -0.0158 0.008
                        }
                      }
                    }
                  }
                }
              }
            }
          }
        }
        JOINT rCollar
        {
          OFFSET -1.7069 20.075 5.0056
          CHANNELS 6 Xposition Yposition Zposition Zrotation Xrotation Yrotation
          JOINT rShldr
          {
            OFFSET -13.6458 -0.047 -4.849
            CHANNELS 6 Xposition Yposition Zposition Zrotation Xrotation Yrotation
            JOINT rForeArm
            {
              OFFSET -28.3255 -0.9759 2.2888
              CHANNELS 6 Xposition Yposition Zposition Zrotation Xrotation Yrotation
              JOINT rHand
              {
                OFFSET -22.1583 -0.53 10.8316
                CHANNELS 6 Xposition Yposition Zposition Zrotation Xrotation Yrotation
                JOINT rThumb1
                {
                  OFFSET -0.786 0.112 2.5817
                  CHANNELS 6 Xposition Yposition Zposition Zrotation Xrotation Yrotation
                  JOINT rThumb2
                  {
                    OFFSET -0.3601 -0.878 4.2331
                    CHANNELS 6 Xposition Yposition Zposition Zrotation Xrotation Yrotation
                    JOINT rThumb2_End
                    {
                      OFFSET -1.8127 -1.216 2.2227
                      CHANNELS 6 Xposition Yposition Zposition Zrotation Xrotation Yrotation
                      End Site
                      {
                        OFFSET -0.0181 -0.0122 0.0222
                      }
                    }
                  }
                }
                JOINT rCarpal1
                {
                  OFFSET -0.9571 1.114 1.7695
                  CHANNELS 6 Xposition Yposition Zposition Zrotation Xrotation Yrotation
                  JOINT rIndex1
                  {
                    OFFSET -4.1246 0.487 4.1451
                    CHANNELS 6 Xposition Yposition Zposition Zrotation Xrotation Yrotation
                    JOINT rIndex2
                    {
                      OFFSET -3.4052 -1.454 2.7682
                      CHANNELS 6 Xposition Yposition Zposition Zrotation Xrotation Yrotation
                      JOINT rIndex2_End
                      {
                        OFFSET -1.4531 -1.795 1.2713
                        CHANNELS 6 Xposition Yposition Zposition Zrotation Xrotation Yrotation
                        End Site
                        {
                          OFFSET -0.0145 -0.018 0.0127
                        }
                      }
                    }
                  }
                  JOINT rMid1
                  {
                    OFFSET -5.6954 0.21 2.1184
                    CHANNELS 6 Xposition Yposition Zposition Zrotation Xrotation Yrotation
                    JOINT rMid2
                    {
                      OFFSET -3.9766 -1.54 2.3863
                      CHANNELS 6 Xposition Yposition Zposition Zrotation Xrotation Yrotation
                      JOINT rMid2_End
                      {
                        OFFSET -1.4042 -1.926 1.125
                        CHANNELS 6 Xposition Yposition Zposition Zrotation Xrotation Yrotation
                        End Site
                        {
                          OFFSET -0.014 -0.0193 0.0113
                        }
                      }
                    }
                  }
                }
                JOINT rCarpal2
                {
                  OFFSET -2.0956 0.66 -0.3894
                  CHANNELS 6 Xposition Yposition Zposition Zrotation Xrotation Yrotation
                  JOINT rRing1
                  {
                    OFFSET -5.0395 -0.09 2.4971
                    CHANNELS 6 Xposition Yposition Zposition Zrotation Xrotation Yrotation
                    JOINT rRing2
                    {
                      OFFSET -3.7921 -1.552 1.4806
                      CHANNELS 6 Xposition Yposition Zposition Zrotation Xrotation Yrotation
                      JOINT rRing2_End
                      {
                        OFFSET -1.4655 -1.808 0.9609
                        CHANNELS 6 Xposition Yposition Zposition Zrotation Xrotation Yrotation
                        End Site
                        {
                          OFFSET -0.0147 -0.0181 0.0096
                        }
                      }
                    }
                  }
                  JOINT rPinky1
                  {
                    OFFSET -4.9141 -1.269 0.3592
                    CHANNELS 6 Xposition Yposition Zposition Zrotation Xrotation Yrotation
                    JOINT rPinky2
                    {
                      OFFSET -3.1477 -1.685 0.8462
                      CHANNELS 6 Xposition Yposition Zposition Zrotation Xrotation Yrotation
                      JOINT rPinky2_End
                      {
                        OFFSET -0.8055 -1.585 0.7955
                        CHANNELS 6 Xposition Yposition Zposition Zrotation Xrotation Yrotation
                        End Site
                        {
                          OFFSET -0.0081 -0.0158 0.008
                        }
                      }
                    }
                  }
                }
              }
            }
          }
        }
      }
    }
  }
  JOINT lThigh
  {
    OFFSET 8.367 -8.2066 0.5982
    CHANNELS 6 Xposition Yposition Zposition Zrotation Xrotation Yrotation
    JOINT lShin
    {
      OFFSET 2.1923 -43.463 -0.4932
      CHANNELS 6 Xposition Yposition Zposition Zrotation Xrotation Yrotation
      JOINT lFoot
      {
        OFFSET 0.7333 -45.8593 -2.6451
        CHANNELS 6 Xposition Yposition Zposition Zrotation Xrotation Yrotation
        End Site
        {
          OFFSET 2.6618 -4.2699 12.3931
        }
      }
    }
  }
  JOINT rThigh
  {
    OFFSET -8.367 -8.2066 0.5982
    CHANNELS 6 Xposition Yposition Zposition Zrotation Xrotation Yrotation
    JOINT rShin
    {
      OFFSET -2.1923 -43.463 -0.4931
      CHANNELS 6 Xposition Yposition Zposition Zrotation Xrotation Yrotation
      JOINT rFoot
      {
        OFFSET -0.7333 -45.8593 -2.6451
        CHANNELS 6 Xposition Yposition Zposition Zrotation Xrotation Yrotation
        End Site
        {
          OFFSET -2.6618 -4.2699 12.3931
        }
      }
    }
  }
}
MOTION
Frames:	4
Frame Time:	0.0333333
-0.833252 21.9327 36.7642 5.995e-016 47.3461 180 0 -1.186 -1.5018 -0.337862 14.5656 -0.01113 1.11022e-016 9.964 0.2134 -0.709014 29.131 0.0738101 1.11022e-016 13.134 -3.2573 -0.709015 29.131 0.0738104 -3.33067e-016 20.686 -1.6905 -10.1763 -32.2074 -5.66785 0 7.238 -0.1237 -11.138 -11.399 -26.8642 1.7069 20.075 5.0056 10.9352 9.26746 -20.6314 13.6458 -0.047 -4.849 -53.169 5.6719 -25.9241 28.3255 -0.9759 2.2888 -6.66601 2.40504 17.0763 22.1583 -0.53 10.8316 -9.66843 -2.92028 -14.6313 0.786 0.112 2.5817 -6.36111e-015 -9.54166e-015 1.59028e-015 0.3601 -0.878 4.2331 -5.56127e-007 2.52398e-006 1.93672e-006 1.8127 -1.216 2.2227 -1.11005e-006 -1.93672e-006 2.52398e-006 0.9571 1.114 1.7695 -1.59028e-015 -9.54166e-015 -0 4.1246 0.487 4.1451 -7.95139e-015 -9.54166e-015 3.97569e-015 3.4052 -1.454 2.7682 -5.56127e-007 2.52398e-006 1.93672e-006 1.4531 -1.795 1.2713 -1.11005e-006 -1.93672e-006 2.52398e-006 5.6954 0.21 2.1184 -7.95139e-015 -9.54166e-015 3.97569e-015 3.9766 -1.54 2.3863 -5.56127e-007 2.52398e-006 1.93672e-006 1.4042 -1.926 1.125 -1.11005e-006 -1.93672e-006 2.52398e-006 2.0956 0.66 -0.3894 -1.59028e-015 -9.54166e-015 -0 5.0395 -0.09 2.4971 -7.95139e-015 -9.54166e-015 3.97569e-015 3.7921 -1.552 1.4806 -5.56127e-007 2.52398e-006 1.93672e-006 1.4655 -1.808 0.9609 -1.11005e-006 -1.93672e-006 2.52398e-006 4.9141 -1.269 0.3591 -7.95139e-015 -9.54166e-015 3.97569e-015 3.1477 -1.685 0.8462 -5.56127e-007 2.52398e-006 1.93672e-006 0.8055 -1.585 0.7955 -1.11005e-006 -1.93672e-006 2.52398e-006 -1.7069 20.075 5.0056 -10.3579 9.97407 21.0706 -13.6458 -0.047 -4.849 52.5841 5.33352 26.1478 -28.3255 -0.9759 2.2888 4.51623 2.63363 -18.2985 -22.1583 -0.53 10.8316 10.2027 -4.09727 14.9982 -0.786 0.112 2.5817 -9.08899e-007 -4.85406e-006 -1.44478e-006 -0.3601 -0.878 4.2331 -4.83067e-006 -7.15815e-007 6.76838e-006 -1.8127 -1.216 2.2227 -1.45131e-006 -3.93425e-006 -1.34823e-007 -0.9571 1.114 1.7695 2.64834e-031 3.18055e-015 -4.77083e-015 -4.1246 0.487 4.1451 -9.08899e-007 -4.85406e-006 -1.44478e-006 -3.4052 -1.454 2.7682 -4.83067e-006 -7.15815e-007 6.76838e-006 -1.4531 -1.795 1.2713 -1.45131e-006 -3.93425e-006 -1.34823e-007 -5.6954 0.21 2.1184 -9.08899e-007 -4.85406e-006 -1.44478e-006 -3.9766 -1.54 2.3863 -4.83067e-006 -7.15815e-007 6.76838e-006 -1.4042 -1.926 1.125 -1.45131e-006 -3.93425e-006 -1.34823e-007 -2.0956 0.66 -0.3894 2.64834e-031 3.18055e-015 -4.77083e-015 -5.0395 -0.09 2.4971 -9.08899e-007 -4.85406e-006 -1.44478e-006 -3.7921 -1.552 1.4806 -4.83067e-006 -7.15815e-007 6.76838e-006 -1.4655 -1.808 0.9609 -1.45131e-006 -3.93425e-006 -1.34823e-007 -4.9141 -1.269 0.3592 -9.08899e-007 -4.85406e-006 -1.44478e-006 -3.1477 -1.685 0.8462 -4.83067e-006 -7.15815e-007 6.76838e-006 -0.8055 -1.585 0.7955 -1.45131e-006 -3.93425e-006 -1.34823e-007 8.367 -8.2066 0.5982 45.5107 -30.0399 82.9668 2.1923 -43.463 -0.4932 6.57882 45.4439 -58.0809 0.7333 -45.8593 -2.6451 14.9977 33.5747 31.1734 -8.367 -8.2066 0.5982 -45.5267 -30.038 -82.9848 -2.1923 -43.463 -0.4931 -6.59722 45.4427 58.0944 -0.7333 -45.8593 -2.6451 -15.0069 33.5785 -31.1803 
-0.833265 21.9405 36.8415 4.84379e-016 46.9109 180 0 -1.186 -1.5018 -0.338052 14.5889 -0.0107059 1.11022e-016 9.964 0.2134 -0.709662 29.1777 0.0749519 -1.66533e-016 13.134 -3.2573 -0.709662 29.1777 0.0749518 2.77556e-016 20.686 -1.6905 -10.0874 -31.7395 -5.56264 1.77636e-015 7.238 -0.1237 -10.821 -11.2359 -26.7347 1.7069 20.075 5.0056 11.0432 9.03009 -20.676 13.6458 -0.047 -4.849 -53.169 5.6719 -25.9241 28.3255 -0.9759 2.2888 -6.666 2.40505 17.0764 22.1583 -0.53 10.8316 -9.52096 -3.21512 -14.9351 0.786 0.112 2.5817 -5.57554e-007 2.52569e-006 1.93547e-006 0.3601 -0.878 4.2331 -5.57554e-007 2.52569e-006 1.93547e-006 1.8127 -1.216 2.2227 -8.74653e-015 -3.18055e-015 -7.95139e-015 0.9571 1.114 1.7695 -4.41391e-032 -3.18055e-015 -7.95139e-016 4.1246 0.487 4.1451 -5.57554e-007 2.52569e-006 1.93547e-006 3.4052 -1.454 2.7682 -5.57554e-007 2.52569e-006 1.93547e-006 1.4531 -1.795 1.2713 -8.74653e-015 -3.18055e-015 -6.36111e-015 5.6954 0.21 2.1184 -5.57554e-007 2.52569e-006 1.93547e-006 3.9766 -1.54 2.3863 -5.57554e-007 2.52569e-006 1.93547e-006 1.4042 -1.926 1.125 -8.74653e-015 -3.18055e-015 -6.36111e-015 2.0956 0.66 -0.3894 -4.41391e-032 -3.18055e-015 -7.95139e-016 5.0395 -0.09 2.4971 -5.57554e-007 2.52569e-006 1.93547e-006 3.7921 -1.552 1.4806 -5.57554e-007 2.52569e-006 1.93547e-006 1.4655 -1.808 0.9609 -8.74653e-015 -3.18055e-015 -6.36111e-015 4.9141 -1.269 0.3591 -5.57554e-007 2.52569e-006 1.93547e-006 3.1477 -1.685 0.8462 -5.57554e-007 2.52569e-006 1.93547e-006 0.8055 -1.585 0.7955 -8.74653e-015 -3.18055e-015 -6.36111e-015 -1.7069 20.075 5.0056 -10.4472 9.75912 21.1309 -13.6458 -0.047 -4.849 52.5841 5.33352 26.1478 -28.3255 -0.9759 2.2888 4.51623 2.63362 -18.2985 -22.1583 -0.53 10.8316 10.0767 -4.42698 15.3109 -0.786 0.112 2.5817 1.51303e-006 3.96609e-007 6.58037e-007 -0.3601 -0.878 4.2331 -4.89434e-007 -2.62117e-006 1.83873e-006 -1.8127 -1.216 2.2227 2.38542e-015 0 -2.38542e-015 -0.9571 1.114 1.7695 1.59028e-015 9.54166e-015 -3.97569e-015 -4.1246 0.487 4.1451 1.51303e-006 3.96609e-007 6.58037e-007 -3.4052 -1.454 2.7682 -4.89434e-007 -2.62117e-006 1.83873e-006 -1.4531 -1.795 1.2713 1.59028e-015 -3.18055e-015 -0 -5.6954 0.21 2.1184 1.51303e-006 3.96609e-007 6.58037e-007 -3.9766 -1.54 2.3863 -4.89434e-007 -2.62117e-006 1.83873e-006 -1.4042 -1.926 1.125 1.59028e-015 -3.18055e-015 -0 -2.0956 0.66 -0.3894 1.59028e-015 9.54166e-015 -3.97569e-015 -5.0395 -0.09 2.4971 1.51303e-006 3.96609e-007 6.58037e-007 -3.7921 -1.552 1.4806 -4.89434e-007 -2.62117e-006 1.83873e-006 -1.4655 -1.808 0.9609 1.59028e-015 -3.18055e-015 -0 -4.9141 -1.269 0.3592 1.51303e-006 3.96609e-007 6.58037e-007 -3.1477 -1.685 0.8462 -4.89434e-007 -2.62117e-006 1.83873e-006 -0.8055 -1.585 0.7955 1.59028e-015 -3.18055e-015 -0 8.367 -8.2066 0.5982 45.5095 -30.4084 83.0913 2.1923 -43.463 -0.4932 6.44164 45.1897 -57.9934 0.7333 -45.8593 -2.6451 14.8141 33.7135 31.35 -8.367 -8.2066 0.5982 -45.5259 -30.4065 -83.1098 -2.1923 -43.463 -0.4931 -6.46049 45.1885 58.0074 -0.7333 -45.8593 -2.6451 -14.8235 33.7175 -31.3571 
-0.833284 21.948 36.9186 3.71115e-016 46.4758 180 0 -1.186 -1.5018 -0.338243 14.6123 -0.0102813 0 9.964 0.2134 -0.710311 29.2244 0.0760951 1.11022e-016 13.134 -3.2573 -0.710311 29.2244 0.0760949 1.11022e-016 20.686 -1.6905 -9.99922 -31.2696 -5.45831 0 7.238 -0.1237 -10.5043 -11.072 -26.6061 1.7069 20.075 5.0056 11.151 8.79263 -20.72 13.6458 -0.047 -4.849 -53.169 5.6719 -25.9241 28.3255 -0.9759 2.2888 -6.66602 2.40503 17.0764 22.1583 -0.53 10.8316 -9.37506 -3.5107 -15.2381 0.786 0.112 2.5817 -6.36111e-015 2.8625e-014 -7.95139e-016 0.3601 -0.878 4.2331 -7.95139e-016 3.18055e-014 -7.95139e-016 1.8127 -1.216 2.2227 -7.15625e-015 3.49861e-014 -2.38542e-015 0.9571 1.114 1.7695 -3.18055e-015 0 7.95139e-016 4.1246 0.487 4.1451 -5.56597e-015 3.18055e-014 7.95139e-016 3.4052 -1.454 2.7682 -2.38542e-015 3.18055e-014 7.95139e-016 1.4531 -1.795 1.2713 -7.15625e-015 2.54444e-014 -3.18055e-015 5.6954 0.21 2.1184 -5.56597e-015 3.18055e-014 7.95139e-016 3.9766 -1.54 2.3863 -2.38542e-015 3.18055e-014 7.95139e-016 1.4042 -1.926 1.125 -7.15625e-015 2.54444e-014 -3.18055e-015 2.0956 0.66 -0.3894 -3.18055e-015 0 7.95139e-016 5.0395 -0.09 2.4971 -5.56597e-015 3.18055e-014 7.95139e-016 3.7921 -1.552 1.4806 -2.38542e-015 3.18055e-014 7.95139e-016 1.4655 -1.808 0.9609 -7.15625e-015 2.54444e-014 -3.18055e-015 4.9141 -1.269 0.3591 -5.56597e-015 3.18055e-014 7.95139e-016 3.1477 -1.685 0.8462 -2.38542e-015 3.18055e-014 7.95139e-016 0.8055 -1.585 0.7955 -7.15625e-015 2.54444e-014 -3.18055e-015 -1.7069 20.075 5.0056 -10.5362 9.54408 21.1908 -13.6458 -0.047 -4.849 52.5841 5.33352 26.1478 -28.3255 -0.9759 2.2888 4.51624 2.63364 -18.2985 -22.1583 -0.53 10.8316 9.95252 -4.75736 15.623 -0.786 0.112 2.5817 1.76556e-031 6.36111e-015 -1.59028e-015 -0.3601 -0.878 4.2331 4.91128e-007 2.62239e-006 -1.83789e-006 -1.8127 -1.216 2.2227 3.97569e-015 3.18055e-015 -7.95139e-016 -0.9571 1.114 1.7695 -3.97569e-015 -6.36111e-015 -2.38542e-015 -4.1246 0.487 4.1451 -8.82781e-032 3.18055e-015 1.59028e-015 -3.4052 -1.454 2.7682 4.91128e-007 2.62239e-006 -1.83789e-006 -1.4531 -1.795 1.2713 7.95139e-016 9.54166e-015 -2.38542e-015 -5.6954 0.21 2.1184 -8.82781e-032 3.18055e-015 1.59028e-015 -3.9766 -1.54 2.3863 4.91128e-007 2.62239e-006 -1.83789e-006 -1.4042 -1.926 1.125 7.95139e-016 9.54166e-015 -2.38542e-015 -2.0956 0.66 -0.3894 -3.97569e-015 -6.36111e-015 -2.38542e-015 -5.0395 -0.09 2.4971 -8.82781e-032 3.18055e-015 1.59028e-015 -3.7921 -1.552 1.4806 4.91128e-007 2.62239e-006 -1.83789e-006 -1.4655 -1.808 0.9609 7.95139e-016 9.54166e-015 -2.38542e-015 -4.9141 -1.269 0.3592 -8.82781e-032 3.18055e-015 1.59028e-015 -3.1477 -1.685 0.8462 4.91128e-007 2.62239e-006 -1.83789e-006 -0.8055 -1.585 0.7955 7.95139e-016 9.54166e-015 -2.38542e-015 8.367 -8.2066 0.5982 45.5094 -30.7767 83.2163 2.1923 -43.463 -0.4932 6.30579 44.9353 -57.9073 0.7333 -45.8593 -2.6451 14.6295 33.8519 31.5275 -8.367 -8.2066 0.5982 -45.5262 -30.7749 -83.2352 -2.1923 -43.463 -0.4931 -6.32507 44.934 57.9218 -0.7333 -45.8593 -2.6451 -14.639 33.856 -31.5348 
-0.833305 21.9552 36.9955 2.59661e-016 46.0408 180 0 -1.186 -1.5018 -0.338434 14.6356 -0.00985639 0 9.964 0.2134 -0.710961 29.2711 0.0772398 -1.11022e-016 13.134 -3.2573 -0.710962 29.2711 0.0772401 -5.55112e-017 20.686 -1.6905 -9.91312 -30.8 -5.35559 0 7.238 -0.1237 -10.1878 -10.9072 -26.4784 1.7069 20.075 5.0056 11.2585 8.55512 -20.7636 13.6458 -0.047 -4.849 -53.169 5.6719 -25.9241 28.3255 -0.9759 2.2888 -6.66601 2.40504 17.0764 22.1583 -0.53 10.8316 -9.23069 -3.80703 -15.5406 0.786 0.112 2.5817 -4.77083e-015 3.18055e-015 4.77083e-015 0.3601 -0.878 4.2331 6.40558e-007 2.36012e-006 2.34914e-006 1.8127 -1.216 2.2227 1.59028e-015 -3.18055e-015 7.95139e-015 0.9571 1.114 1.7695 -5.56597e-015 3.18055e-015 -0 4.1246 0.487 4.1451 -3.18055e-015 0 2.38542e-015 3.4052 -1.454 2.7682 6.40558e-007 2.36012e-006 2.34914e-006 1.4531 -1.795 1.2713 3.18055e-015 3.18055e-015 3.18055e-015 5.6954 0.21 2.1184 -3.18055e-015 0 2.38542e-015 3.9766 -1.54 2.3863 6.40558e-007 2.36012e-006 2.34914e-006 1.4042 -1.926 1.125 3.18055e-015 3.18055e-015 3.18055e-015 2.0956 0.66 -0.3894 -5.56597e-015 3.18055e-015 -0 5.0395 -0.09 2.4971 -3.18055e-015 0 2.38542e-015 3.7921 -1.552 1.4806 6.40558e-007 2.36012e-006 2.34914e-006 1.4655 -1.808 0.9609 3.18055e-015 3.18055e-015 3.18055e-015 4.9141 -1.269 0.3591 -3.18055e-015 0 2.38542e-015 3.1477 -1.685 0.8462 6.40558e-007 2.36012e-006 2.34914e-006 0.8055 -1.585 0.7955 3.18055e-015 3.18055e-015 3.18055e-015 -1.7069 20.075 5.0056 -10.6249 9.32895 21.2503 -13.6458 -0.047 -4.849 52.5841 5.33353 26.1478 -28.3255 -0.9759 2.2888 4.51624 2.63362 -18.2985 -22.1583 -0.53 10.8316 9.83009 -5.08832 15.9345 -0.786 0.112 2.5817 1.57078e-006 7.86513e-007 -4.46066e-006 -0.3601 -0.878 4.2331 9.85689e-007 5.24717e-006 -3.67415e-006 -1.8127 -1.216 2.2227 -5.83226e-006 5.44635e-006 -1.36935e-006 -0.9571 1.114 1.7695 -3.18055e-015 -3.18055e-015 -2.38542e-015 -4.1246 0.487 4.1451 1.57078e-006 7.86513e-007 -4.46066e-006 -3.4052 -1.454 2.7682 9.85689e-007 5.24717e-006 -3.67415e-006 -1.4531 -1.795 1.2713 -5.83226e-006 5.44635e-006 -1.36935e-006 -5.6954 0.21 2.1184 1.57078e-006 7.86513e-007 -4.46066e-006 -3.9766 -1.54 2.3863 9.85689e-007 5.24717e-006 -3.67415e-006 -1.4042 -1.926 1.125 -5.83226e-006 5.44635e-006 -1.36935e-006 -2.0956 0.66 -0.3894 -3.18055e-015 -3.18055e-015 -2.38542e-015 -5.0395 -0.09 2.4971 1.57078e-006 7.86513e-007 -4.46066e-006 -3.7921 -1.552 1.4806 9.85689e-007 5.24717e-006 -3.67415e-006 -1.4655 -1.808 0.9609 -5.83226e-006 5.44635e-006 -1.36935e-006 -4.9141 -1.269 0.3592 1.57078e-006 7.86513e-007 -4.46066e-006 -3.1477 -1.685 0.8462 9.85689e-007 5.24717e-006 -3.67415e-006 -0.8055 -1.585 0.7955 -5.83226e-006 5.44635e-006 -1.36935e-006 8.367 -8.2066 0.5982 45.5104 -31.145 83.3417 2.1923 -43.463 -0.4932 6.17117 44.6806 -57.8225 0.7333 -45.8593 -2.6451 14.4438 33.9899 31.7059 -8.367 -8.2066 0.5982 -45.5278 -31.1432 -83.3613 -2.1923 -43.463 -0.4931 -6.19096 44.6795 57.8375 -0.7333 -45.8593 -2.6451 -14.4536 33.9939 -31.7133 
